<svg width="508" height="197" viewBox="0 0 508 197" fill="none" xmlns="http://www.w3.org/2000/svg">
<rect width="508" height="197" rx="28" fill="#ED941D"/>
<path d="M27 105C27 105 45.8937 98 58 98C70.1062 98 89 105 89 105C89 105 89 105 89 105C89 105 107.894 112 120 112C132.106 112 151 105 151 105" stroke="url(#paint0_linear)" stroke-width="11" stroke-linecap="round" stroke-linejoin="bevel"/>
<path d="M27 122.5C27 122.5 45.8937 115 58 115C70.1063 115 89 122.5 89 122.5V122.5C89 122.5 107.894 130 120 130C132.106 130 151 122.5 151 122.5" stroke="url(#paint1_linear)" stroke-width="11" stroke-linecap="round" stroke-linejoin="bevel"/>
<path d="M172.971 157C170.886 157 169.131 156.285 167.705 154.855C166.279 153.424 165.566 151.664 165.566 149.573V47.7472C165.566 45.6567 166.279 43.8964 167.705 42.4661C169.131 40.9258 170.886 40.1556 172.971 40.1556C175.055 40.1556 176.811 40.9258 178.237 42.4661C179.773 43.8964 180.541 45.6567 180.541 47.7472V149.573C180.541 151.664 179.773 153.424 178.237 154.855C176.811 156.285 175.055 157 172.971 157Z" fill="white"/>
<path d="M219.897 157C217.812 157 216.057 156.285 214.631 154.855C213.204 153.424 212.491 151.664 212.491 149.573V48.5724C212.491 46.4819 213.204 44.7216 214.631 43.2913C216.057 41.7509 217.812 40.9808 219.897 40.9808H258.239C273.16 40.9808 284.35 44.0614 291.81 50.2227C299.27 56.384 303 64.4707 303 74.4828C303 81.0841 301.135 87.1354 297.405 92.6366C293.785 98.0277 288.464 101.933 281.442 104.354C289.341 106.444 294.717 111.395 297.569 119.207C300.532 126.909 302.013 134.5 302.013 141.982V149.573C302.013 151.664 301.3 153.424 299.873 154.855C298.447 156.285 296.692 157 294.607 157C292.304 157 290.438 156.34 289.012 155.02C287.696 153.589 287.038 151.774 287.038 149.573V144.622C287.038 139.121 286.544 134.06 285.556 129.439C284.569 124.708 282.21 120.527 278.48 116.897C274.75 113.156 269.1 111.285 261.531 111.285H227.466V149.573C227.466 151.664 226.698 153.424 225.163 154.855C223.736 156.285 221.981 157 219.897 157ZM257.252 97.0925C266.687 97.0925 274.147 95.2221 279.632 91.4813C285.227 87.7405 288.025 82.4594 288.025 75.638C288.025 69.0366 285.611 63.9756 280.784 60.4548C276.067 56.9341 267.948 55.1737 256.429 55.1737H227.466V97.0925H257.252Z" fill="white"/>
<path d="M42.4053 156.844C40.2111 156.844 38.4009 156.129 36.9747 154.699C35.6582 153.269 35 151.508 35 149.418C35 148.538 35.2743 147.437 35.8228 146.117L77.7859 46.7664C78.6636 44.786 79.8704 43.1907 81.4063 41.9804C83.0519 40.6601 85.0266 40 87.3305 40H88.9761C91.28 40 93.1998 40.6601 94.7357 41.9804C96.3814 43.1907 97.643 44.786 98.5207 46.7664L140.484 146.117C141.032 147.437 141.307 148.538 141.307 149.418C141.307 151.508 140.593 153.269 139.167 154.699C137.851 156.129 136.095 156.844 133.901 156.844C132.365 156.844 130.939 156.459 129.623 155.689C128.416 154.809 127.483 153.654 126.825 152.223L116.129 126.478H60.1779L49.4814 152.223C48.8231 153.654 47.8358 154.809 46.5193 155.689C45.3125 156.459 43.9412 156.844 42.4053 156.844ZM60.1779 126.478H116.129L88.1533 59.144L60.1779 126.478Z" fill="white"/>
<path d="M339.236 157C332.952 157 329.81 154.161 329.81 148.484V128.484H325.227C324.882 128.484 324.581 128.376 324.323 128.161C324.108 127.903 324 127.602 324 127.258C324 126.828 324.194 126.462 324.581 126.161L333.361 117.581C333.748 117.194 334.114 117 334.459 117C334.803 117 335.083 117.129 335.298 117.387C335.556 117.645 335.685 117.946 335.685 118.29V123.452H342.98C343.712 123.452 344.315 123.688 344.788 124.161C345.262 124.634 345.498 125.237 345.498 125.968C345.498 126.656 345.262 127.258 344.788 127.774C344.315 128.247 343.712 128.484 342.98 128.484H335.685V147.968C335.685 149.645 336.073 150.72 336.847 151.194C337.665 151.624 338.677 151.839 339.882 151.839C340.742 151.839 341.603 151.71 342.464 151.452C342.636 151.409 342.808 151.366 342.98 151.323C343.196 151.28 343.454 151.258 343.755 151.258C344.358 151.258 344.896 151.495 345.369 151.968C345.843 152.398 346.079 152.935 346.079 153.581C346.079 154.57 345.584 155.323 344.594 155.839C342.916 156.613 341.13 157 339.236 157Z" fill="white"/>
<path d="M363.758 157C361.391 157 359.325 156.441 357.56 155.323C355.839 154.204 354.505 152.677 353.558 150.742C352.654 148.806 352.202 146.677 352.202 144.355V126.032C352.202 125.215 352.482 124.527 353.041 123.968C353.644 123.409 354.354 123.129 355.172 123.129C355.989 123.129 356.678 123.409 357.238 123.968C357.797 124.527 358.077 125.215 358.077 126.032V143.71C358.077 148.957 360.444 151.581 365.178 151.581C367.33 151.581 369.246 151.022 370.924 149.903C372.646 148.785 374.26 147.28 375.766 145.387V126.032C375.766 125.215 376.046 124.527 376.605 123.968C377.208 123.409 377.918 123.129 378.736 123.129C379.554 123.129 380.242 123.409 380.802 123.968C381.361 124.527 381.641 125.215 381.641 126.032V153.71C381.641 154.527 381.361 155.237 380.802 155.839C380.242 156.398 379.554 156.677 378.736 156.677C377.918 156.677 377.208 156.398 376.605 155.839C376.046 155.237 375.766 154.527 375.766 153.71V151.065C374.131 152.871 372.366 154.312 370.472 155.387C368.578 156.462 366.34 157 363.758 157Z" fill="white"/>
<path d="M394.771 156.677C393.953 156.677 393.264 156.398 392.705 155.839C392.145 155.28 391.866 154.591 391.866 153.774V126.097C391.866 125.28 392.145 124.591 392.705 124.032C393.264 123.43 393.953 123.129 394.771 123.129C395.589 123.129 396.277 123.43 396.837 124.032C397.439 124.591 397.74 125.28 397.74 126.097V128.742C399.376 126.935 401.141 125.495 403.034 124.419C404.928 123.344 407.166 122.806 409.749 122.806C412.116 122.806 414.16 123.366 415.882 124.484C417.646 125.602 418.981 127.129 419.884 129.065C420.831 131 421.305 133.129 421.305 135.452V153.774C421.305 154.591 421.003 155.28 420.401 155.839C419.841 156.398 419.153 156.677 418.335 156.677C417.517 156.677 416.829 156.398 416.269 155.839C415.71 155.28 415.43 154.591 415.43 153.774V136.097C415.43 130.849 413.063 128.226 408.328 128.226C406.176 128.226 404.239 128.785 402.518 129.903C400.839 131.022 399.247 132.527 397.74 134.419V153.774C397.74 154.591 397.439 155.28 396.837 155.839C396.277 156.398 395.589 156.677 394.771 156.677Z" fill="white"/>
<path d="M445.926 157C440.675 157 436.565 155.516 433.595 152.548C430.668 149.538 429.205 145.323 429.205 139.903C429.205 136.849 429.765 134.032 430.884 131.452C432.003 128.871 433.724 126.785 436.048 125.194C438.373 123.602 441.235 122.806 444.635 122.806C447.82 122.806 450.574 123.559 452.898 125.065C455.223 126.527 456.987 128.505 458.192 131C459.397 133.452 460 136.14 460 139.065C460 139.882 459.72 140.57 459.161 141.129C458.644 141.688 457.934 141.968 457.03 141.968H435.145C435.489 144.978 436.608 147.323 438.502 149C440.395 150.677 443.042 151.516 446.443 151.516C448.25 151.516 449.821 151.344 451.155 151C452.533 150.656 453.867 150.161 455.158 149.516C455.502 149.344 455.89 149.258 456.32 149.258C457.009 149.258 457.611 149.495 458.128 149.968C458.644 150.441 458.902 151.043 458.902 151.774C458.902 152.72 458.343 153.516 457.224 154.161C455.545 155.108 453.888 155.817 452.253 156.29C450.617 156.763 448.508 157 445.926 157ZM454.19 137.194C454.061 135.086 453.501 133.323 452.511 131.903C451.564 130.484 450.381 129.452 448.96 128.806C447.54 128.118 446.098 127.774 444.635 127.774C443.172 127.774 441.73 128.118 440.309 128.806C438.889 129.452 437.705 130.484 436.759 131.903C435.812 133.323 435.274 135.086 435.145 137.194H454.19Z" fill="white"/>
<circle cx="476" cy="152" r="5" fill="url(#paint2_linear)"/>
<defs>
<linearGradient id="paint0_linear" x1="157.5" y1="105" x2="22" y2="105" gradientUnits="userSpaceOnUse">
<stop stop-color="#269AF2"/>
<stop offset="1" stop-color="#64D6CF"/>
</linearGradient>
<linearGradient id="paint1_linear" x1="157.5" y1="122.5" x2="22" y2="122.5" gradientUnits="userSpaceOnUse">
<stop stop-color="#269AF2"/>
<stop offset="1" stop-color="#64D6CF"/>
</linearGradient>
<linearGradient id="paint2_linear" x1="481.524" y1="152" x2="470.597" y2="152" gradientUnits="userSpaceOnUse">
<stop stop-color="#269AF2"/>
<stop offset="1" stop-color="#64D6CF"/>
</linearGradient>
</defs>
</svg>
